<svg width="160" height="40" viewBox="0 0 160 40" fill="none" xmlns="http://www.w3.org/2000/svg">
<path d="M24.2396 32.04C20.9196 32.04 18.1196 31.14 15.8396 29.34C13.5596 27.54 12.3996 25.16 12.3996 22.2C12.3996 19.24 13.5596 16.86 15.8396 15.06C18.1196 13.26 20.9196 12.36 24.2396 12.36C26.0396 12.36 27.6596 12.68 29.0996 13.32C30.5396 13.96 31.6796 14.84 32.5196 15.96L29.6396 18.36C29.0396 17.56 28.2796 16.96 27.3596 16.56C26.4396 16.16 25.4196 15.96 24.2996 15.96C22.1396 15.96 20.4196 16.58 19.1396 17.82C17.8596 19.06 17.1996 20.54 17.1996 22.2C17.1996 23.86 17.8596 25.34 19.1396 26.58C20.4196 27.82 22.1396 28.44 24.2996 28.44C25.4196 28.44 26.4396 28.24 27.3596 27.84C28.2796 27.44 29.0396 26.84 29.6396 26.04L32.5196 28.44C31.6796 29.56 30.5396 30.44 29.0996 31.08C27.6596 31.72 26.0396 32.04 24.2396 32.04ZM40.3196 31.68V12.72H44.9996V27.48L56.3996 12.72H61.5996L48.9596 25.08L62.1596 31.68H56.9596L46.9196 27.12L44.9996 29.28V31.68H40.3196ZM66.5596 31.68V12.72H71.2396V31.68H66.5596ZM68.8796 9.84C67.9596 9.84 67.2196 9.52 66.6596 8.88C66.0996 8.24 65.8196 7.52 65.8196 6.72C65.8196 5.92 66.0996 5.2 66.6596 4.56C67.2196 3.92 67.9596 3.6 68.8796 3.6C69.7996 3.6 70.5396 3.92 71.0996 4.56C71.6596 5.2 71.9396 5.92 71.9396 6.72C71.9396 7.52 71.6596 8.24 71.0996 8.88C70.5396 9.52 69.7996 9.84 68.8796 9.84ZM76.3196 31.68V12.72H80.9996V31.68H76.3196ZM85.8396 31.68V12.72H90.5196V28.08H99.1196V31.68H85.8396ZM103.52 31.68V12.72H116.48V15.96H108.2V19.92H115.28V23.16H108.2V28.08H116.84V31.68H103.52Z" fill="#111827"/>
<g>
<path d="M120 22C120 28.6274 125.373 34 132 34C138.627 34 144 28.6274 144 22C144 15.3726 138.627 10 132 10C125.373 10 120 15.3726 120 22Z" fill="#7C3AED"/>
<path d="M132 14L132 18" stroke="white" stroke-width="2" stroke-linecap="round"/>
<path d="M132 26L132 30" stroke="white" stroke-width="2" stroke-linecap="round"/>
<path d="M138 16L136 19" stroke="white" stroke-width="2" stroke-linecap="round"/>
<path d="M126 25L128 28" stroke="white" stroke-width="2" stroke-linecap="round"/>
<path d="M140 22L136 22" stroke="white" stroke-width="2" stroke-linecap="round"/>
<path d="M128 22L124 22" stroke="white" stroke-width="2" stroke-linecap="round"/>
<path d="M138 28L136 25" stroke="white" stroke-width="2" stroke-linecap="round"/>
<path d="M126 19L128 16" stroke="white" stroke-width="2" stroke-linecap="round"/>
</g>
</svg>
